<?xml version="1.0" standalone="no"?>
<!DOCTYPE svg PUBLIC "-//W3C//DTD SVG 20010904//EN"
 "http://www.w3.org/TR/2001/REC-SVG-20010904/DTD/svg10.dtd">
<svg version="1.0" xmlns="http://www.w3.org/2000/svg"
 width="200.000000pt" height="146.000000pt" viewBox="0 0 200.000000 146.000000"
 preserveAspectRatio="xMidYMid meet">
<metadata>
Created by potrace 1.16, written by Peter Selinger 2001-2019
</metadata>
<g transform="translate(0.000000,146.000000) scale(0.100000,-0.100000)"
fill="#000000" stroke="none">
<path d="M886 1250 c-44 -53 -59 -146 -30 -188 9 -13 34 -34 56 -48 l40 -25
-7 -62 c-3 -34 -8 -106 -11 -159 -3 -54 -9 -98 -13 -98 -4 0 -20 27 -36 60
-16 33 -34 60 -40 60 -14 0 -84 -50 -104 -73 -12 -15 -16 -15 -43 5 -30 21
-61 76 -51 91 3 5 16 -1 28 -13 23 -22 45 -20 45 4 0 6 -16 27 -35 46 -19 19
-35 40 -35 46 0 7 -8 18 -17 23 -10 6 -15 11 -10 11 4 0 1 13 -7 29 -16 30
-41 45 -57 35 -5 -3 -28 11 -51 30 -23 20 -51 36 -63 36 -26 0 -80 -56 -89
-92 -9 -40 8 -42 39 -3 32 41 53 44 83 12 21 -22 21 -23 2 -35 -11 -7 -20 -18
-20 -26 0 -7 -7 -19 -15 -26 -12 -10 -8 -17 28 -47 23 -20 81 -73 129 -118
l88 -83 -15 -36 c-8 -19 -15 -51 -15 -70 0 -24 -8 -43 -25 -60 -14 -14 -25
-36 -25 -49 0 -22 7 -26 63 -37 139 -28 544 -28 670 1 50 11 57 15 57 36 0 13
-11 35 -25 49 -14 14 -25 36 -25 49 0 13 -5 46 -11 73 l-12 50 43 51 43 51
-24 19 c-13 11 -27 20 -31 21 -3 0 -22 -19 -42 -42 l-35 -43 -28 26 c-36 33
-74 59 -88 59 -6 0 -24 -25 -40 -55 -17 -30 -33 -55 -37 -55 -5 0 -8 35 -8 79
0 47 -6 93 -15 114 -8 20 -15 56 -15 80 0 40 4 47 38 70 50 35 65 62 64 115
-1 45 -25 93 -62 127 -20 18 -20 18 -16 -59 l4 -78 -35 -15 c-35 -14 -107 -11
-117 6 -3 4 -6 42 -7 84 -2 42 -4 77 -5 77 -1 0 -14 -14 -28 -30z"/>
<path d="M1285 1031 l-30 -9 33 -1 c38 -1 92 -22 109 -42 6 -8 14 -30 18 -50
5 -30 2 -41 -21 -68 l-27 -32 34 -29 c40 -34 46 -35 71 -13 20 17 72 20 91 4
9 -7 22 2 45 29 17 21 32 41 32 43 0 3 -11 8 -24 11 -14 3 -30 20 -40 41 -24
50 -132 113 -206 119 -30 3 -68 1 -85 -3z"/>
</g>
</svg>
